<?xml version="1.0" encoding="UTF-8"?>
<svg id="Capa_1" data-name="Capa 1" xmlns="http://www.w3.org/2000/svg" viewBox="0 0 638.28 151.31">
  <defs>
    <style>
      .cls-1 {
        fill: #fff;
      }
    </style>
  </defs>
  <g>
    <path class="cls-1" d="M64.64,96.95h-8.08v-48.48H16.16v48.48H0V16.16h16.16v16.16h40.4v-16.16h16.16v80.79h-8.08ZM56.56,16.16H16.16V0h40.4v16.16Z"/>
    <path class="cls-1" d="M105.03,80.79h-16.16v-40.4h-8.08v-16.16h8.08V8.08h16.16v16.16h8.08v16.16h-8.08v40.4ZM113.11,96.95h-8.08v-16.16h16.16v16.16h-8.08Z"/>
    <path class="cls-1" d="M153.51,80.79h-16.16v-40.4h-8.08v-16.16h8.08V8.08h16.16v16.16h8.08v16.16h-8.08v40.4ZM161.59,96.95h-8.08v-16.16h16.16v16.16h-8.08Z"/>
    <path class="cls-1" d="M193.91,80.79h-16.16v-40.4h16.16v40.4ZM226.22,40.4h-32.32v-16.16h32.32v16.16ZM218.14,96.95h-24.24v-16.16h32.32v16.16h-8.08ZM226.22,80.79v-40.4h16.16v40.4h-16.16Z"/>
    <path class="cls-1" d="M315.1,88.87h8.08v8.08h-72.71v-8.08h64.64Z"/>
    <path class="cls-1" d="M347.42,80.79h-16.16V16.16h16.16v64.64ZM412.05,32.32h-8.08v-16.16h-56.56V0h64.64v16.16h8.08v16.16h-8.08ZM403.97,96.95h-56.56v-16.16h56.56v-16.16h16.16v16.16h-8.08v16.16h-8.08Z"/>
    <path class="cls-1" d="M444.37,80.79h-16.16v-40.4h16.16v40.4ZM476.69,40.4h-32.32v-16.16h32.32v16.16ZM468.61,96.95h-24.24v-16.16h32.32v16.16h-8.08ZM476.69,80.79v-40.4h16.16v40.4h-16.16Z"/>
    <path class="cls-1" d="M557.48,96.95h-56.56v-56.56h16.16v-16.16h32.32V0h16.16v96.95h-8.08ZM541.32,80.79h8.08v-40.4h-32.32v40.4h24.24Z"/>
    <path class="cls-1" d="M589.8,80.79h-16.16v-40.4h16.16v-16.16h48.48v32.32h-16.16v8.08h-32.32v16.16ZM614.04,48.48h8.08v-8.08h-32.32v8.08h24.24ZM630.2,96.95h-40.4v-16.16h32.32v-8.08h16.16v24.24h-8.08Z"/>
  </g>
  <path class="cls-1" d="M100.99,118.99v16.16h-16.16v-16.16h16.16ZM157.55,151.31h-56.56v-16.16h56.56v-16.16h16.16v16.16h-8.08v16.16h-8.08Z"/>
</svg>